# xmcd CD database generated by RipIT
#
# Track frame offsets:
# 150
# 19883
# 39781
# 61424
# 79772
# 93905
# 116493
# 133803
# 160280
# 182150
#
# Disc length: 2721 seconds
#
# Revision: 0
# Processed by: cddbd v1.5.2PL0 Copyright (c) Steve Scherf et al.
# Submitted via: RipIT 3.9.0 www.suwald.com/ripit/ripit.html on 2017-10-07 at 19:32
#
DISCID=7b0a9f0a
DTITLE=Chris Robinson Brotherhood - Barefoot in the head
DYEAR=2017
DGENRE=0
TTITLE0=Behold the seer
TTITLE1=She shares my blanket
TTITLE2=Hark, the herald hermit speaks
TTITLE3=Blonde light of morning
TTITLE4=Dog eat sun
TTITLE5=Blue star woman
TTITLE6=High is not the top
TTITLE7=If you had a heart to break
TTITLE8=Glow
TTITLE9=Good to know
EXTD=
EXTT0=
EXTT1=
EXTT2=
EXTT3=
EXTT4=
EXTT5=
EXTT6=
EXTT7=
EXTT8=
EXTT9=
PLAYORDER=
